<?xml version="1.0" encoding="UTF-8"?>
<svg version="1.1" xmlns="http://www.w3.org/2000/svg" width="64" height="64">
<path d="M0 0 C0.86066574 0.00022659 1.72133148 0.00045319 2.608078 0.00068665 C3.99571098 0.02391243 3.99571098 0.02391243 5.41137695 0.04760742 C6.83665459 0.05397469 6.83665459 0.05397469 8.29072571 0.06047058 C11.32732408 0.07727133 14.36326022 0.11492625 17.3996582 0.15307617 C19.45759133 0.1681212 21.51553485 0.18180992 23.57348633 0.1940918 C28.61996568 0.22717947 33.66594964 0.27897155 38.7121582 0.34057617 C38.7121582 1.00057617 38.7121582 1.66057617 38.7121582 2.34057617 C38.0521582 2.34057617 37.3921582 2.34057617 36.7121582 2.34057617 C36.7121582 5.64057617 36.7121582 8.94057617 36.7121582 12.34057617 C39.3521582 12.34057617 41.9921582 12.34057617 44.7121582 12.34057617 C44.7121582 13.00057617 44.7121582 13.66057617 44.7121582 14.34057617 C44.0521582 14.34057617 43.3921582 14.34057617 42.7121582 14.34057617 C42.7121582 17.64057617 42.7121582 20.94057617 42.7121582 24.34057617 C43.3721582 24.34057617 44.0321582 24.34057617 44.7121582 24.34057617 C44.7121582 25.00057617 44.7121582 25.66057617 44.7121582 26.34057617 C42.0721582 26.34057617 39.4321582 26.34057617 36.7121582 26.34057617 C36.7121582 29.64057617 36.7121582 32.94057617 36.7121582 36.34057617 C39.3521582 36.34057617 41.9921582 36.34057617 44.7121582 36.34057617 C44.7121582 37.00057617 44.7121582 37.66057617 44.7121582 38.34057617 C44.0521582 38.34057617 43.3921582 38.34057617 42.7121582 38.34057617 C42.7121582 41.64057617 42.7121582 44.94057617 42.7121582 48.34057617 C43.3721582 48.34057617 44.0321582 48.34057617 44.7121582 48.34057617 C44.7121582 49.00057617 44.7121582 49.66057617 44.7121582 50.34057617 C38.64325645 50.41466594 32.57461724 50.46914976 26.50537109 50.50537109 C24.44022029 50.52046889 22.3751016 50.54094891 20.31005859 50.56689453 C17.34375082 50.60323412 14.3778665 50.62029247 11.41137695 50.63354492 C10.4862883 50.64902878 9.56119965 50.66451263 8.608078 50.6804657 C7.74741226 50.68069229 6.88674652 50.68091888 6 50.68115234 C5.24277145 50.68781418 4.48554291 50.69447601 3.70536804 50.70133972 C1.16684818 50.24187709 0.27341546 49.35594186 -1.2878418 47.34057617 C-1.4050293 45.40307617 -1.4050293 45.40307617 -1.1628418 43.34057617 C-1.00882391 41.25065302 -1.00882391 41.25065302 -1.2878418 39.34057617 C-3.6078921 37.31415509 -3.6078921 37.31415509 -6.2878418 36.34057617 C-7.2878418 35.34057617 -7.2878418 35.34057617 -7.5378418 31.46557617 C-7.47638125 27.64819317 -7.47638125 27.64819317 -6.1003418 25.40307617 C-3.86285555 24.0914463 -1.84471849 23.68610005 0.7121582 23.34057617 C0.7121582 20.70057617 0.7121582 18.06057617 0.7121582 15.34057617 C-0.2365918 15.05182617 -1.1853418 14.76307617 -2.1628418 14.46557617 C-5.2878418 13.34057617 -5.2878418 13.34057617 -7.2878418 11.34057617 C-7.86434408 4.07664737 -7.86434408 4.07664737 -6.03312683 1.73857117 C-3.85218245 -0.00839238 -2.76812936 -0.02435304 0 0 Z M0.7121582 4.34057617 C11.9321582 4.34057617 23.1521582 4.34057617 34.7121582 4.34057617 C34.7121582 3.68057617 34.7121582 3.02057617 34.7121582 2.34057617 C30.3522295 2.29112231 25.99244959 2.2548313 21.63232422 2.23071289 C20.14922237 2.22065796 18.66614033 2.20701213 17.18310547 2.18969727 C15.05081289 2.16542611 12.91878251 2.15408818 10.78637695 2.14526367 C9.50335693 2.13479004 8.22033691 2.12431641 6.8984375 2.11352539 C3.55573076 2.08797057 3.55573076 2.08797057 0.7121582 4.34057617 Z M-0.2878418 4.34057617 C-0.2878418 6.32057617 -0.2878418 8.30057617 -0.2878418 10.34057617 C0.0421582 10.34057617 0.3721582 10.34057617 0.7121582 10.34057617 C0.7121582 8.36057617 0.7121582 6.38057617 0.7121582 4.34057617 C0.3821582 4.34057617 0.0521582 4.34057617 -0.2878418 4.34057617 Z M3.7121582 6.34057617 C3.7121582 7.00057617 3.7121582 7.66057617 3.7121582 8.34057617 C8.6621582 8.34057617 13.6121582 8.34057617 18.7121582 8.34057617 C18.7121582 7.68057617 18.7121582 7.02057617 18.7121582 6.34057617 C13.7621582 6.34057617 8.8121582 6.34057617 3.7121582 6.34057617 Z M29.7121582 6.34057617 C29.7121582 7.00057617 29.7121582 7.66057617 29.7121582 8.34057617 C31.3621582 8.34057617 33.0121582 8.34057617 34.7121582 8.34057617 C34.7121582 7.68057617 34.7121582 7.02057617 34.7121582 6.34057617 C33.0621582 6.34057617 31.4121582 6.34057617 29.7121582 6.34057617 Z M0.7121582 10.34057617 C4.39303173 12.79449186 7.15571409 12.56860376 11.3996582 12.46557617 C12.10155273 12.45655273 12.80344727 12.4475293 13.52661133 12.43823242 C15.25527346 12.41471321 16.98375966 12.3788433 18.7121582 12.34057617 C18.7121582 11.68057617 18.7121582 11.02057617 18.7121582 10.34057617 C12.7721582 10.34057617 6.8321582 10.34057617 0.7121582 10.34057617 Z M29.7121582 10.34057617 C29.7121582 11.00057617 29.7121582 11.66057617 29.7121582 12.34057617 C31.3621582 12.34057617 33.0121582 12.34057617 34.7121582 12.34057617 C34.7121582 11.68057617 34.7121582 11.02057617 34.7121582 10.34057617 C33.0621582 10.34057617 31.4121582 10.34057617 29.7121582 10.34057617 Z M8.7121582 16.34057617 C11.3521582 16.34057617 13.9921582 16.34057617 16.7121582 16.34057617 C16.7121582 17.00057617 16.7121582 17.66057617 16.7121582 18.34057617 C15.0621582 18.34057617 13.4121582 18.34057617 11.7121582 18.34057617 C11.7121582 19.00057617 11.7121582 19.66057617 11.7121582 20.34057617 C21.2821582 20.34057617 30.8521582 20.34057617 40.7121582 20.34057617 C40.7121582 19.68057617 40.7121582 19.02057617 40.7121582 18.34057617 C37.7421582 18.34057617 34.7721582 18.34057617 31.7121582 18.34057617 C31.7121582 17.68057617 31.7121582 17.02057617 31.7121582 16.34057617 C34.6821582 16.34057617 37.6521582 16.34057617 40.7121582 16.34057617 C40.7121582 15.68057617 40.7121582 15.02057617 40.7121582 14.34057617 C37.0821582 14.34057617 33.4521582 14.34057617 29.7121582 14.34057617 C29.3821582 15.33057617 29.0521582 16.32057617 28.7121582 17.34057617 C27.9696582 17.15495117 27.2271582 16.96932617 26.4621582 16.77807617 C23.76224858 16.34854509 22.26584743 16.48934643 19.7121582 17.34057617 C19.3821582 16.35057617 19.0521582 15.36057617 18.7121582 14.34057617 C13.39045326 14.0449525 13.39045326 14.0449525 8.7121582 16.34057617 Z M7.7121582 16.34057617 C7.7121582 18.32057617 7.7121582 20.30057617 7.7121582 22.34057617 C8.0421582 22.34057617 8.3721582 22.34057617 8.7121582 22.34057617 C8.7121582 20.36057617 8.7121582 18.38057617 8.7121582 16.34057617 C8.3821582 16.34057617 8.0521582 16.34057617 7.7121582 16.34057617 Z M8.7121582 22.34057617 C12.34521878 24.76261656 14.03034843 24.57360508 18.34887695 24.53588867 C19.64760742 24.52944336 20.94633789 24.52299805 22.28442383 24.51635742 C23.65617127 24.49964678 25.02791606 24.48271688 26.3996582 24.46557617 C27.78311539 24.45554291 29.16657948 24.44641766 30.55004883 24.43823242 C33.93759272 24.41462584 37.32478892 24.38169654 40.7121582 24.34057617 C40.7121582 23.68057617 40.7121582 23.02057617 40.7121582 22.34057617 C30.1521582 22.34057617 19.5921582 22.34057617 8.7121582 22.34057617 Z M0.7121582 28.34057617 C11.9321582 28.34057617 23.1521582 28.34057617 34.7121582 28.34057617 C34.7121582 27.68057617 34.7121582 27.02057617 34.7121582 26.34057617 C30.3522295 26.29112231 25.99244959 26.2548313 21.63232422 26.23071289 C20.14922237 26.22065796 18.66614033 26.20701213 17.18310547 26.18969727 C15.05081289 26.16542611 12.91878251 26.15408818 10.78637695 26.14526367 C9.50335693 26.13479004 8.22033691 26.12431641 6.8984375 26.11352539 C3.55573076 26.08797057 3.55573076 26.08797057 0.7121582 28.34057617 Z M-0.2878418 28.34057617 C-0.2878418 30.32057617 -0.2878418 32.30057617 -0.2878418 34.34057617 C0.0421582 34.34057617 0.3721582 34.34057617 0.7121582 34.34057617 C0.7121582 32.36057617 0.7121582 30.38057617 0.7121582 28.34057617 C0.3821582 28.34057617 0.0521582 28.34057617 -0.2878418 28.34057617 Z M3.7121582 30.34057617 C3.7121582 31.00057617 3.7121582 31.66057617 3.7121582 32.34057617 C9.6521582 32.34057617 15.5921582 32.34057617 21.7121582 32.34057617 C21.7121582 31.68057617 21.7121582 31.02057617 21.7121582 30.34057617 C15.7721582 30.34057617 9.8321582 30.34057617 3.7121582 30.34057617 Z M32.7121582 30.34057617 C32.7121582 31.00057617 32.7121582 31.66057617 32.7121582 32.34057617 C33.3721582 32.34057617 34.0321582 32.34057617 34.7121582 32.34057617 C34.7121582 31.68057617 34.7121582 31.02057617 34.7121582 30.34057617 C34.0521582 30.34057617 33.3921582 30.34057617 32.7121582 30.34057617 Z M0.7121582 34.34057617 C4.50378847 36.86832968 7.52089851 36.56500652 11.8996582 36.46557617 C13.02404297 36.45204102 13.02404297 36.45204102 14.17114258 36.43823242 C16.01828475 36.41470195 17.86526232 36.37883178 19.7121582 36.34057617 C19.7121582 37.00057617 19.7121582 37.66057617 19.7121582 38.34057617 C19.02508789 38.31737305 18.33801758 38.29416992 17.63012695 38.27026367 C16.72907227 38.2522168 15.82801758 38.23416992 14.8996582 38.21557617 C14.00633789 38.19237305 13.11301758 38.16916992 12.19262695 38.14526367 C9.45813106 38.1577179 9.45813106 38.1577179 6.7121582 40.34057617 C17.9321582 40.34057617 29.1521582 40.34057617 40.7121582 40.34057617 C40.7121582 39.68057617 40.7121582 39.02057617 40.7121582 38.34057617 C38.7321582 38.34057617 36.7521582 38.34057617 34.7121582 38.34057617 C34.7121582 37.02057617 34.7121582 35.70057617 34.7121582 34.34057617 C34.0521582 34.34057617 33.3921582 34.34057617 32.7121582 34.34057617 C32.3821582 35.66057617 32.0521582 36.98057617 31.7121582 38.34057617 C30.9696582 38.15495117 30.2271582 37.96932617 29.4621582 37.77807617 C26.76224858 37.34854509 25.26584743 37.48934643 22.7121582 38.34057617 C22.3821582 37.02057617 22.0521582 35.70057617 21.7121582 34.34057617 C14.7821582 34.34057617 7.8521582 34.34057617 0.7121582 34.34057617 Z M5.7121582 40.34057617 C5.7121582 42.32057617 5.7121582 44.30057617 5.7121582 46.34057617 C6.0421582 46.34057617 6.3721582 46.34057617 6.7121582 46.34057617 C6.7121582 44.36057617 6.7121582 42.38057617 6.7121582 40.34057617 C6.3821582 40.34057617 6.0521582 40.34057617 5.7121582 40.34057617 Z M9.7121582 42.34057617 C9.7121582 43.00057617 9.7121582 43.66057617 9.7121582 44.34057617 C19.9421582 44.34057617 30.1721582 44.34057617 40.7121582 44.34057617 C40.7121582 43.68057617 40.7121582 43.02057617 40.7121582 42.34057617 C30.4821582 42.34057617 20.2521582 42.34057617 9.7121582 42.34057617 Z M6.7121582 46.34057617 C10.43756482 48.82418058 12.34278793 48.57216287 16.78637695 48.53588867 C17.4702095 48.53305878 18.15404205 48.53022888 18.8585968 48.52731323 C21.03912985 48.51613301 23.21924965 48.49103308 25.3996582 48.46557617 C26.87946997 48.45554355 28.35928819 48.44641819 29.83911133 48.43823242 C33.46359421 48.41620098 37.08783586 48.38168619 40.7121582 48.34057617 C40.7121582 47.68057617 40.7121582 47.02057617 40.7121582 46.34057617 C29.4921582 46.34057617 18.2721582 46.34057617 6.7121582 46.34057617 Z " fill="#65647E" transform="translate(13.287841796875,6.659423828125)"/>
<path d="M0 0 C2.31 0 4.62 0 7 0 C7 1.32 7 2.64 7 4 C4.69 4 2.38 4 0 4 C0 2.68 0 1.36 0 0 Z " fill="#BA8CCD" transform="translate(34,17)"/>
</svg>
