<?xml version="1.0" encoding="UTF-8"?>
<svg version="1.1" xmlns="http://www.w3.org/2000/svg" width="32" height="32">
<path d="M0 0 C1.32 0 2.64 0 4 0 C4 0.99 4 1.98 4 3 C5.32 3 6.64 3 8 3 C8 3.66 8 4.32 8 5 C6.68 5 5.36 5 4 5 C4 5.66 4 6.32 4 7 C5.32 7.33 6.64 7.66 8 8 C8 10.64 8 13.28 8 16 C7.34 16 6.68 16 6 16 C6 14.02 6 12.04 6 10 C5.34 10 4.68 10 4 10 C4 10.66 4 11.32 4 12 C3.34 12 2.68 12 2 12 C2.33 13.32 2.66 14.64 3 16 C1.68 16 0.36 16 -1 16 C-0.67 14.68 -0.34 13.36 0 12 C-0.99 12 -1.98 12 -3 12 C-3 8.7 -3 5.4 -3 2 C-2.34 2 -1.68 2 -1 2 C-0.67 1.34 -0.34 0.68 0 0 Z " fill="#52716F" transform="translate(5,14)"/>
<path d="M0 0 C0.70125 0.00515625 1.4025 0.0103125 2.125 0.015625 C2.82625 0.01046875 3.5275 0.0053125 4.25 0 C6.125 0.265625 6.125 0.265625 8.125 2.265625 C8.390625 4.140625 8.390625 4.140625 8.375 6.265625 C8.38015625 6.966875 8.3853125 7.668125 8.390625 8.390625 C8.125 10.265625 8.125 10.265625 6.125 12.265625 C4.25 12.53125 4.25 12.53125 2.125 12.515625 C1.42375 12.52078125 0.7225 12.5259375 0 12.53125 C-1.875 12.265625 -1.875 12.265625 -3.875 10.265625 C-4.140625 8.390625 -4.140625 8.390625 -4.125 6.265625 C-4.13015625 5.564375 -4.1353125 4.863125 -4.140625 4.140625 C-3.75603481 1.4258707 -2.7147543 0.38459019 0 0 Z M0.125 2.265625 C-0.535 2.925625 -1.195 3.585625 -1.875 4.265625 C-1.55458603 6.86843068 -1.55458603 6.86843068 -0.875 9.265625 C1.52219432 9.94521103 1.52219432 9.94521103 4.125 10.265625 C4.785 9.605625 5.445 8.945625 6.125 8.265625 C5.80458603 5.66281932 5.80458603 5.66281932 5.125 3.265625 C2.72780568 2.58603897 2.72780568 2.58603897 0.125 2.265625 Z " fill="#7A5592" transform="translate(22.875,0.734375)"/>
<path d="M0 0 C2.31 0 4.62 0 7 0 C7 3.3 7 6.6 7 10 C6.34 10 5.68 10 5 10 C5 7.36 5 4.72 5 2 C3.35 2 1.7 2 0 2 C0 1.34 0 0.68 0 0 Z " fill="#5E687A" transform="translate(14,20)"/>
<path d="M0 0 C0.66 0.33 1.32 0.66 2 1 C2.042721 2.66611905 2.04063832 4.33382885 2 6 C1 7 1 7 -2.0625 7.0625 C-3.5165625 7.0315625 -3.5165625 7.0315625 -5 7 C-5 6.34 -5 5.68 -5 5 C-3.68 5 -2.36 5 -1 5 C-0.67 3.35 -0.34 1.7 0 0 Z " fill="#676281" transform="translate(19,12)"/>
<path d="M0 0 C1.65 0 3.3 0 5 0 C5 1.65 5 3.3 5 5 C3.35 5 1.7 5 0 5 C0 3.35 0 1.7 0 0 Z " fill="#60677B" transform="translate(5,8)"/>
<path d="M0 0 C0.66 0 1.32 0 2 0 C2 0.66 2 1.32 2 2 C2.66 2 3.32 2 4 2 C4 2.66 4 3.32 4 4 C2.68 4 1.36 4 0 4 C0 2.68 0 1.36 0 0 Z " fill="#7C5393" transform="translate(24,4)"/>
</svg>
