<?xml version="1.0" encoding="UTF-8"?>
<svg version="1.1" xmlns="http://www.w3.org/2000/svg" width="64" height="64">
<path d="M0 0 C2.57714844 1.25341797 2.57714844 1.25341797 5.109375 2.9921875 C6.02847656 3.61480469 6.94757812 4.23742187 7.89453125 4.87890625 C8.83683594 5.53761719 9.77914062 6.19632813 10.75 6.875 C11.70777344 7.52597656 12.66554687 8.17695313 13.65234375 8.84765625 C20.60089983 13.60089983 20.60089983 13.60089983 23 16 C23.125 18.625 23.125 18.625 23 21 C21.68 21.33 20.36 21.66 19 22 C19 26.62 19 31.24 19 36 C18.34 36 17.68 36 17 36 C17 31.05 17 26.1 17 21 C14.525 20.01 14.525 20.01 12 19 C9.21962092 17.06268141 6.49876539 15.08300926 3.81640625 13.01367188 C1.38599765 11.23804394 -0.37173117 10.02225751 -3.42578125 9.9140625 C-7.18057674 11.49802782 -10.36608108 13.72043254 -13.6875 16.0625 C-20.75358117 21 -20.75358117 21 -23 21 C-23 25.95 -23 30.9 -23 36 C-23.66 36 -24.32 36 -25 36 C-25 31.38 -25 26.76 -25 22 C-26.32 21.67 -27.64 21.34 -29 21 C-29.33203125 18.7734375 -29.33203125 18.7734375 -29 16 C-26.76171875 13.7890625 -26.76171875 13.7890625 -23.6875 11.625 C-23.14786621 11.24287354 -22.60823242 10.86074707 -22.05224609 10.46704102 C-20.37974948 9.29356039 -18.69085101 8.14681661 -17 7 C-15.99839844 6.29488281 -14.99679688 5.58976563 -13.96484375 4.86328125 C-6.05050576 -0.50366322 -6.05050576 -0.50366322 0 0 Z " fill="#705B8A" transform="translate(35,8)"/>
<path d="M0 0 C2.57714844 1.25341797 2.57714844 1.25341797 5.109375 2.9921875 C6.02847656 3.61480469 6.94757812 4.23742187 7.89453125 4.87890625 C8.83683594 5.53761719 9.77914062 6.19632813 10.75 6.875 C11.70777344 7.52597656 12.66554688 8.17695313 13.65234375 8.84765625 C20.60089983 13.60089983 20.60089983 13.60089983 23 16 C23.125 18.625 23.125 18.625 23 21 C21.68 21.33 20.36 21.66 19 22 C19 26.62 19 31.24 19 36 C18.34 36 17.68 36 17 36 C17 31.05 17 26.1 17 21 C15.35 20.34 13.7 19.68 12 19 C9.75005811 17.51547418 7.55708809 16.01428283 5.375 14.4375 C0.9656225 11.22115276 0.9656225 11.22115276 -4 9 C-3.67 8.01 -3.34 7.02 -3 6 C0.96933765 7.17275885 3.72789044 8.51770999 7 11 C7.99 11 8.98 11 10 11 C8.28526178 9.62760882 6.55257992 8.27761439 4.8125 6.9375 C3.84957031 6.18339844 2.88664062 5.42929688 1.89453125 4.65234375 C-0.82551873 2.75643708 -0.82551873 2.75643708 -3.625 3.125 C-5.85254326 3.94567383 -7.78646699 4.83098974 -9.8125 6.0625 C-11.3903125 7.0215625 -11.3903125 7.0215625 -13 8 C-12.06601394 4.85841051 -11.33205059 3.2674852 -8.75 1.1875 C-5.50440995 -0.21400479 -3.51523114 -0.29175437 0 0 Z " fill="#73598D" transform="translate(35,8)"/>
<path d="M0 0 C16 0 32 0 48 0 C48 1.98 48 3.96 48 6 C48.66 6 49.32 6 50 6 C50 6.66 50 7.32 50 8 C43.07 8 36.14 8 29 8 C29 8.66 29 9.32 29 10 C25.7 10 22.4 10 19 10 C19 9.34 19 8.68 19 8 C12.07 8 5.14 8 -2 8 C-2 7.34 -2 6.68 -2 6 C-1.34 6 -0.68 6 0 6 C0 4.02 0 2.04 0 0 Z M2 2 C2 3.32 2 4.64 2 6 C8.27 6 14.54 6 21 6 C21 6.66 21 7.32 21 8 C21.66 7.67 22.32 7.34 23 7 C22.20882096 5.00016466 22.20882096 5.00016466 21 3 C17.23699626 1.74566542 13.72789091 1.89304578 9.8125 1.9375 C8.68811523 1.94426758 8.68811523 1.94426758 7.54101562 1.95117188 C5.69397617 1.96293646 3.84697787 1.98087135 2 2 Z M26 4 C25.19471111 6.05000871 25.19471111 6.05000871 25 8 C25.66 8 26.32 8 27 8 C27 7.34 27 6.68 27 6 C33.27 6 39.54 6 46 6 C46 4.68 46 3.36 46 2 C43.41638482 1.94592433 40.83390745 1.906293 38.25 1.875 C37.52039062 1.85824219 36.79078125 1.84148438 36.0390625 1.82421875 C30.69029708 1.74137393 30.69029708 1.74137393 26 4 Z " fill="#467965" transform="translate(8,46)"/>
<path d="M0 0 C3.13315608 1.30878672 5.57777051 3.04171135 8.28125 5.09375 C9.25707031 5.82722656 10.23289062 6.56070312 11.23828125 7.31640625 C11.97433594 7.88230469 12.71039063 8.44820312 13.46875 9.03125 C11.7109375 9.6875 11.7109375 9.6875 9.46875 10.03125 C7.5390625 9 7.5390625 9 5.59375 7.53125 C2.77609731 5.65803275 1.81554726 5.03818595 -1.65625 4.96875 C-4.69961015 5.96233356 -4.69961015 5.96233356 -7.65625 8.15625 C-10.53125 10.03125 -10.53125 10.03125 -12.7109375 9.6484375 C-13.31164062 9.44476563 -13.91234375 9.24109375 -14.53125 9.03125 C-12.64866837 7.49095594 -10.75311184 5.97519844 -8.84375 4.46875 C-8.31330078 4.03111328 -7.78285156 3.59347656 -7.23632812 3.14257812 C-4.7883296 1.23524185 -3.1541094 0.03893962 0 0 Z " fill="#576C74" transform="translate(32.53125,9.96875)"/>
<path d="M0 0 C3.63 0 7.26 0 11 0 C11 4.29 11 8.58 11 13 C10.34 13 9.68 13 9 13 C9 10.69 9 8.38 9 6 C6.69 6 4.38 6 2 6 C2 8.31 2 10.62 2 13 C1.34 13 0.68 13 0 13 C0 8.71 0 4.42 0 0 Z M2 2 C2 2.66 2 3.32 2 4 C4.31 4 6.62 4 9 4 C9 3.34 9 2.68 9 2 C6.69 2 4.38 2 2 2 Z " fill="#5D6979" transform="translate(27,31)"/>
<path d="M0 0 C2.64 0 5.28 0 8 0 C8 2.64 8 5.28 8 8 C5.36 8 2.72 8 0 8 C0 5.36 0 2.72 0 0 Z M2 2 C2 3.32 2 4.64 2 6 C3.32 6 4.64 6 6 6 C6 4.68 6 3.36 6 2 C4.68 2 3.36 2 2 2 Z " fill="#5F687A" transform="translate(40,31)"/>
<path d="M0 0 C2.64 0 5.28 0 8 0 C8 2.64 8 5.28 8 8 C5.36 8 2.72 8 0 8 C0 5.36 0 2.72 0 0 Z M2 2 C2 3.32 2 4.64 2 6 C3.32 6 4.64 6 6 6 C6 4.68 6 3.36 6 2 C4.68 2 3.36 2 2 2 Z " fill="#5F687A" transform="translate(17,31)"/>
<path d="M0 0 C0.66 0.33 1.32 0.66 2 1 C0.64486335 5.06540996 -1.30796918 5.97300269 -5 8 C-6.32 7.67 -7.64 7.34 -9 7 C-6.03 4.69 -3.06 2.38 0 0 Z " fill="#5F677A" transform="translate(27,12)"/>
<path d="M0 0 C0.66 0.33 1.32 0.66 2 1 C-2.75 5.875 -2.75 5.875 -5 7 C-3.75023244 3.34683329 -3.32901247 2.21934164 0 0 Z " fill="#834F9A" transform="translate(27,9)"/>
</svg>
